<?xml version="1.0" standalone="no"?>
<!DOCTYPE svg PUBLIC "-//W3C//DTD SVG 20010904//EN"
 "http://www.w3.org/TR/2001/REC-SVG-20010904/DTD/svg10.dtd">
<svg version="1.0" xmlns="http://www.w3.org/2000/svg"
 width="1021.000000pt" height="1021.000000pt" viewBox="0 0 1021.000000 1021.000000"
 preserveAspectRatio="xMidYMid meet">
<metadata>
Created by potrace 1.14, written by Peter Selinger 2001-2017
</metadata>
<g transform="translate(0.000000,1021.000000) scale(0.100000,-0.100000)"
fill="#000000" stroke="none">
<path d="M4834 10189 c-955 -45 -1905 -376 -2694 -938 -356 -254 -732 -610
-1017 -961 -769 -952 -1175 -2199 -1114 -3420 36 -723 196 -1355 501 -1986
252 -521 572 -973 979 -1381 1196 -1200 2894 -1726 4560 -1413 1460 274 2741
1188 3479 2482 939 1644 889 3665 -131 5273 -285 451 -709 918 -1140 1259
-715 565 -1587 931 -2497 1050 -178 23 -201 25 -430 36 -233 11 -256 11 -496
-1z m-311 -2803 c291 -59 517 -206 677 -441 82 -121 122 -212 164 -373 12 -46
26 -83 31 -84 5 0 27 29 50 66 166 273 393 507 621 642 225 133 452 197 739
210 354 16 632 -70 842 -260 168 -152 305 -428 368 -740 54 -267 55 -309 55
-1706 l0 -1290 -329 0 -330 0 -4 1238 c-4 1319 -3 1306 -53 1512 -87 360 -271
574 -549 635 -103 23 -339 17 -440 -12 -203 -57 -357 -152 -526 -322 -165
-167 -264 -322 -355 -556 l-39 -100 -5 -1195 -5 -1195 -327 -3 -328 -2 0 1112
c0 1102 -6 1341 -35 1523 -43 270 -125 457 -255 585 -130 127 -272 179 -492
180 -304 0 -544 -106 -788 -350 -156 -155 -277 -349 -361 -580 l-24 -65 -5
-1200 -5 -1200 -330 0 -330 0 0 1960 0 1960 300 0 300 0 5 -403 5 -403 82 123
c295 444 701 692 1233 752 77 9 368 -3 443 -18z"/>
</g>
</svg>
